<?xml version="1.0" encoding="utf-8"?>
<!-- Generator: Adobe Illustrator 15.1.0, SVG Export Plug-In . SVG Version: 6.00 Build 0)  -->
<!DOCTYPE svg PUBLIC "-//W3C//DTD SVG 1.1//EN" "http://www.w3.org/Graphics/SVG/1.1/DTD/svg11.dtd">
<svg version="1.1" id="Layer_1" xmlns="http://www.w3.org/2000/svg" xmlns:xlink="http://www.w3.org/1999/xlink" x="0px" y="0px"
	 width="1417.32px" height="1417.32px" viewBox="0 0 1417.32 1417.32" enable-background="new 0 0 1417.32 1417.32"
	 xml:space="preserve">
<path d="M481.104,539.782l-0.057,0.058c-0.289-0.115-0.587-0.171-0.935-0.171C480.758,539.725,481.104,539.782,481.104,539.782z"/>
<g>
	<path fill="#428097" d="M1240.406,475.827H893.333L876.91,717.794h8.757c7.295-18.24,15.507-34.852,24.633-49.817
		c9.119-14.952,19.882-27.735,32.301-38.322c12.404-10.57,27.373-18.781,44.885-24.636c17.521-5.829,38.324-8.752,62.413-8.752
		c32.846,0,63.503,5.47,91.973,16.422c28.464,10.942,53.271,26.82,74.454,47.624c21.16,20.8,37.938,46.358,50.357,76.647
		c12.403,30.287,18.616,64.419,18.616,102.365c0,38.694-6.395,74.642-19.161,107.842c-12.775,33.224-31.756,61.864-56.934,85.954
		c-25.187,24.081-56.025,42.888-92.519,56.384c-36.508,13.502-78.116,20.252-124.817,20.252c-37.22,0-70.064-4.014-98.535-12.041
		c-28.471-8.021-53.649-18.782-75.551-32.303c-21.895-13.497-40.882-29.012-56.934-46.527c-16.066-17.517-29.936-36.13-41.605-55.84
		l119.344-94.161c16.777,29.938,36.848,55.292,60.218,76.104c23.354,20.797,54.738,31.195,94.16,31.195
		c39.414,0,69.148-11.307,89.233-33.938c20.063-22.617,30.113-52.552,30.113-89.782v-8.753c0-35.04-10.232-62.776-30.658-83.213
		c-20.448-20.427-48.556-30.662-84.307-30.662c-29.939,0-54.572,6.024-73.908,18.061c-19.345,12.049-34.132,23.923-44.341,35.593
		l-134.672-18.609l28.471-432.486h467.51V475.827z"/>
</g>
<g>
	<polygon fill="#5295AE" points="1148.373,411.507 1084.053,475.827 1100.505,475.827 1153.155,423.178 1240.406,423.178 
		1240.406,411.507 	"/>
	<path fill="#5295AE" d="M783.136,493.202c9.665,0,17.505,7.841,17.505,17.505c0,9.667-7.84,17.506-17.505,17.506
		c-9.671,0-17.504-7.84-17.504-17.506C765.632,501.043,773.465,493.202,783.136,493.202z"/>
	<path fill="#5295AE" d="M1255.8,970.378v-57.614c11.458-2.338,20.411-11.291,22.749-22.753
		c3.224-15.791-6.963-31.198-22.749-34.423c-15.795-3.224-31.203,6.963-34.427,22.753c-3.216,15.791,6.963,31.199,22.757,34.423
		v77.908C1248.322,984.129,1252.235,977.382,1255.8,970.378z M1232.46,884.173c0-9.665,7.833-17.51,17.504-17.51
		c9.665,0,17.505,7.845,17.505,17.51c0,9.663-7.84,17.503-17.505,17.503C1240.293,901.676,1232.46,893.836,1232.46,884.173z"/>
	<path fill="#5295AE" d="M1057.398,1104.797c3.95-0.632,7.81-1.382,11.669-2.131V954.194c-3.678,2.793-7.537,5.37-11.669,7.625
		V1104.797z"/>
	<path fill="#5295AE" d="M1162.441,668.855c-15.795-3.225-31.202,6.963-34.427,22.749c-3.217,15.785,6.963,31.199,22.757,34.421
		c15.779,3.224,31.195-6.965,34.419-22.75h64.684c-2.392-4.006-4.904-7.881-7.508-11.671h-57.176
		C1182.853,680.145,1173.899,671.191,1162.441,668.855z M1156.6,714.945c-9.673,0-17.505-7.843-17.505-17.507
		s7.832-17.504,17.505-17.504c9.663,0,17.505,7.84,17.505,17.504S1166.263,714.945,1156.6,714.945z"/>
	<path fill="#5295AE" d="M1057.398,648.362v94.558c4.095,2.115,7.961,4.522,11.669,7.151v-96.922l48.329-48.329
		c-4.389-1.169-8.839-2.2-13.334-3.124L1057.398,648.362z"/>
	<polygon fill="#5295AE" points="968.747,475.827 1112.175,332.393 1095.661,332.393 952.234,475.827 	"/>
	<path fill="#5295AE" d="M870.667,915.734v174.702c3.791,1.354,7.741,2.573,11.67,3.817V928.975
		C878.325,924.729,874.458,920.286,870.667,915.734z"/>
	<polygon fill="#5295AE" points="882.337,423.178 882.337,332.393 870.667,332.393 870.667,411.507 767.689,411.507 
		766.919,423.178 	"/>
	<path fill="#5295AE" d="M847.91,598.238h-70.608v171.181l11.669,1.612V609.908h58.939c2.339,11.461,11.291,20.412,22.749,22.749
		c4.11,0.839,8.188,0.731,12.033-0.108l0.848-12.468c-2.157,0.952-4.533,1.499-7.038,1.499c-9.673,0-17.505-7.84-17.505-17.507
		c0-9.665,7.832-17.504,17.505-17.504c3.36,0,6.471,0.991,9.135,2.637l0.848-12.428c-1.355-0.49-2.702-0.991-4.155-1.288
		C866.543,572.265,851.134,582.454,847.91,598.238z"/>
	<path fill="#5295AE" d="M777.302,1035.039c3.776,3.421,7.628,6.78,11.669,10.027v-73.363h-64.286
		c2.501,3.936,5.094,7.821,7.776,11.67h44.841V1035.039z"/>
</g>
<g>
	<path fill="#8BD9FE" d="M595.641,1109.757c-64.93,0-119.973-11.124-165.123-33.374c-45.166-22.258-83.614-51.054-115.373-86.396
		l105.851-107.034c50.092,55.946,111.835,83.913,185.232,83.913c39.509,0,68.801-8.037,87.849-24.114
		c19.057-16.078,28.58-37.412,28.58-64.006c0-20.274-5.652-37.228-16.933-50.856c-11.299-13.623-34.237-22.908-68.804-27.801
		l-73.03-9.441c-78.329-9.892-135.667-33.557-172.003-71.001c-36.351-37.446-54.512-87.239-54.512-149.429
		c0-33.204,6.348-63.59,19.051-91.143c12.702-27.553,30.863-51.221,54.511-71c23.634-19.781,52.561-35.161,86.796-46.112
		c34.221-10.947,73.199-16.422,116.964-16.422c55.73,0,104.786,8.849,147.129,26.513c42.342,17.662,78.676,43.463,109.023,77.384
		L763.936,557.585c-17.641-20.242-38.993-36.835-64.035-49.767c-25.054-12.918-56.627-19.379-94.731-19.379
		c-35.986,0-62.816,6.279-80.447,18.85c-17.643,12.572-26.458,30.031-26.458,52.382c0,25.153,6.877,43.309,20.64,54.49
		c13.763,11.18,36.15,19.204,67.213,24.082l73.034,11.658c76.209,12.008,132.658,35.508,169.355,70.475
		c36.682,34.96,55.042,84.598,55.042,148.864c0,35.327-6.35,67.809-19.057,97.476c-12.698,29.674-31.217,55.109-55.564,76.292
		c-24.346,21.206-54.511,37.628-90.505,49.268C682.437,1103.919,641.502,1109.757,595.641,1109.757z"/>
</g>
<g>
	<path fill="#5295AE" d="M791.802,693.034c-3.322-1.966-6.743-3.881-10.27-5.732v134.053h-82.719c2.597,2.07,4.984,4.22,6.91,6.535
		c1.01,1.219,1.914,2.489,2.834,3.761h83.244V693.034z"/>
	<path fill="#5295AE" d="M834.575,415.035c-2.693-2.157-5.486-4.187-8.248-6.25L781.532,453.7v86.082l10.27-10.388v-71.477
		L834.575,415.035z"/>
	<path fill="#5295AE" d="M854.979,986.101H647.537c-2.062-10.103-9.932-18.008-20.013-20.07c-0.228-0.045-0.458-0.026-0.686-0.068
		c-3.737,0.308-7.579,0.534-11.536,0.666c-8.874,2.585-16.095,9.782-18.072,19.473c-2.831,13.934,6.133,27.536,20.02,30.374
		c13.888,2.85,27.449-6.145,30.287-20.077h201.364C851.021,993.036,853.049,989.601,854.979,986.101z M622.386,1006.697
		c-8.511,0-15.412-6.914-15.412-15.446c0-8.518,6.901-15.442,15.412-15.442c8.499,0,15.396,6.925,15.396,15.442
		C637.782,999.783,630.885,1006.697,622.386,1006.697z"/>
	<path fill="#5295AE" d="M515.074,666.906c2.063,10.104,9.944,18.008,20.024,20.064c13.886,2.85,27.451-6.143,30.282-20.064
		c2.845-13.933-6.127-27.536-20.018-30.379c-13.896-2.843-27.445,6.154-30.289,20.075h-62.121v104.856
		c3.346,1.532,6.766,3.012,10.27,4.442v-98.995H515.074z M540.234,646.306c8.5,0,15.405,6.917,15.405,15.442
		c0,8.531-6.905,15.456-15.405,15.456c-8.504,0-15.399-6.925-15.399-15.456C524.835,653.223,531.73,646.306,540.234,646.306z"/>
	<path fill="#5295AE" d="M463.223,921.421c-3.464-2.535-6.889-5.18-10.27-7.923v172.571c3.386,1.31,6.788,2.6,10.27,3.8V921.421z"/>
	<path fill="#5295AE" d="M463.223,491.852H351.126c-1.289,3.39-2.49,6.82-3.597,10.296h105.424v72.078h-82.139v119.214
		c3.191,4.81,6.609,9.466,10.263,13.96V584.521h82.146V491.852z"/>
	<path fill="#5295AE" d="M699.389,439.843c13.888,2.843,27.449-6.143,30.276-20.067c2.838-13.931-6.127-27.53-20.006-30.372
		c-13.902-2.846-27.453,6.143-30.291,20.07H409.348c-3.892,3.321-7.602,6.766-11.192,10.302h281.213
		C681.419,429.887,689.301,437.781,699.389,439.843z M704.524,399.179c8.502,0,15.396,6.917,15.396,15.448
		c0,8.529-6.895,15.444-15.396,15.444c-8.511,0-15.396-6.915-15.396-15.444C689.128,406.096,696.014,399.179,704.524,399.179z"/>
</g>
<path fill="#56B0D1" d="M579.177,596.683c-23.454-30.521-55.846-48.786-97.218-54.798l-10.44-1.339
	c-19.373-2.217-62.558-6.189-105.092-3.441c-32.505,2.039-60.046,10.672-77.786,17.796V324.695h-156.62v783.22h156.62V748.048
	c0-13.419,2.799-25.211,8.456-35.479c5.664-10.212,13.249-18.847,22.761-25.905c9.567-7.062,20.31-12.196,32.328-15.349
	c11.961-3.149,24.332-4.786,36.99-4.786c28.947,0,49.076,8.697,60.335,25.97c11.33,17.271,16.927,43.935,16.927,79.879v335.537
	h156.675V759.717C623.112,689.171,608.469,634.784,579.177,596.683z"/>
<g>
	<path fill="#3CAAD6" d="M366.427,536.181c-9.551,0.598-18.606,1.813-27.183,3.345c-1.198,9.67-1.869,19.569-1.869,29.769
		c0,37.89,6.78,71.148,20.269,99.845c10.259-2.286,20.784-3.535,31.532-3.535c28.947,0,49.076,8.698,60.335,25.97
		c10.761,16.4,16.281,41.374,16.816,74.612c27.782,10.958,60.264,18.829,97.563,23.536l59.223,7.659v-38.589
		c0-46.636-6.44-86.167-19.242-118.643l-17.754-2.833c-31.063-4.877-53.45-12.901-67.213-24.081
		c-13.763-11.182-20.64-29.337-20.64-54.491c0-5.002,0.508-9.715,1.389-14.23c-5.722-1.424-11.578-2.666-17.693-3.555l-10.44-1.339
		C452.146,537.405,408.961,533.434,366.427,536.181z"/>
	<path fill="#3CAAD6" d="M623.112,1106.991V965.354c-5.423,0.355-11.004,0.59-16.885,0.59c-52.593,0-99.166-14.439-139.79-43.167
		v167.346c25.955,8.628,54.624,14.209,85.888,16.869H623.112z"/>
</g>
<g>
	<path fill="#5295AE" d="M188.018,664.792c-2.085-10.224-10.073-18.214-20.299-20.293c-14.09-2.883-27.837,6.206-30.715,20.293
		c-2.876,14.086,6.212,27.836,20.301,30.708c14.084,2.878,27.839-6.211,30.713-20.297h52.584v249.911h48.039v-10.413H251.02V664.792
		H188.018z M162.508,685.62c-8.627,0-15.62-6.997-15.62-15.619c0-8.623,6.993-15.62,15.62-15.62c8.622,0,15.617,6.997,15.617,15.62
		C178.125,678.623,171.13,685.62,162.508,685.62z"/>
	<path fill="#5295AE" d="M334.321,677.944V541.361c-3.579,0.711-7.05,1.481-10.406,2.296v140.298
		C327.261,681.751,330.701,679.705,334.321,677.944z"/>
	<rect x="466.438" y="1081.313" fill="#5295AE" width="156.675" height="10.41"/>
	<polygon fill="#5295AE" points="167.713,1081.313 167.713,792.872 132.021,757.182 132.021,771.758 157.304,797.038 
		157.304,1091.724 288.641,1091.724 288.641,1081.313 	"/>
	<polygon fill="#5295AE" points="251.02,591.902 251.02,341.989 288.641,341.989 288.641,331.578 240.602,331.578 240.602,581.491 
		132.021,581.491 132.021,591.902 	"/>
	<path fill="#5295AE" d="M240.613,1028.712c14.084,2.884,27.835-6.205,30.707-20.297h17.32v-10.406h-17.32
		c-2.087-10.224-10.073-18.208-20.296-20.297c-14.093-2.876-27.841,6.214-30.718,20.297
		C217.437,1012.093,226.52,1025.848,240.613,1028.712z M245.807,987.596c8.628,0,15.626,6.996,15.626,15.62
		c0,8.62-6.998,15.62-15.626,15.62s-15.612-7-15.612-15.62C230.194,994.592,237.179,987.596,245.807,987.596z"/>
	<path fill="#5295AE" d="M490.518,543.486v350.911c-10.222,2.096-18.218,10.08-20.302,20.301
		c-2.873,14.096,6.21,27.847,20.302,30.715c14.082,2.875,27.833-6.214,30.711-20.306c2.878-14.084-6.217-27.827-20.299-30.71
		V545.794C497.534,544.922,494.053,544.17,490.518,543.486z M511.342,919.912c0,8.623-6.999,15.619-15.615,15.619
		c-8.628,0-15.626-6.996-15.626-15.619c0-8.624,6.998-15.621,15.626-15.621C504.343,904.291,511.342,911.288,511.342,919.912z"/>
</g>
</svg>
