<svg class="svgWrapper179" xmlns:vectornator="http://vectornator.io" xmlns="http://www.w3.org/2000/svg" viewBox="0 0 1024 350" fill-rule="evenodd" clip-rule="evenodd" stroke-linecap="round" stroke-linejoin="round"><g vectornator:layerName="Layer 1">
<path d="M37.39 7.918c-2.455-.002-4.603 2.181-4.82 4.853L13.99 240.68c-.081.997.066 2.258.217 3.491.05.42.035.763.108 1.184.153.874.397 1.565.65 2.367.211.723.388 1.56.65 2.131L58.3 342.768c1.1 2.398 3.936 4.324 6.392 4.32l448.403-.71 448.349.71c2.455.004 5.291-1.922 6.392-4.32l42.684-92.915c.26-.571.44-1.408.65-2.131.25-.802.5-1.493.65-2.367.07-.421.06-.764.11-1.184.15-1.233.3-2.494.22-3.491L993.566 12.771c-.218-2.672-2.366-4.855-4.821-4.853l-475.65.355-475.704-.355z" fill="#c1b469"/>
<path d="M55.66 23.08c-2.361-.002-4.427 1.985-4.636 4.418L33.158 235.032c-.078.908.064 2.056.208 3.179.05.382.034.694.105 1.078.147.796.381 1.425.625 2.156.203.657.373 1.42.625 1.94l41.045 84.608c1.058 2.183 3.785 3.937 6.146 3.934l431.182-.647 431.13.647c2.36.003 5.087-1.751 6.146-3.934l41.045-84.608c.252-.52.422-1.283.625-1.94.243-.731.478-1.36.625-2.156.071-.384.055-.696.104-1.078.145-1.123.287-2.271.209-3.179L975.112 27.498c-.21-2.433-2.275-4.42-4.636-4.419l-457.382.324-457.434-.324z" fill="#1f1713"/>
<path stroke="#fff" stroke-width="5" d="M64.02 62.992c-2.314 0-6.168 1.396-6.373 3.374L41.964 235.279c-.076.739.063 1.672.204 2.585.049.31.033.564.102.876.145.647.375 1.159.613 1.752.199.535.366 1.155.613 1.577l34.235 68.222c1.038 1.774 4.32 10.804 6.635 10.801l427.973-.248 425.758.584c2.314.003 7.479-10.439 8.517-12.214l34.603-67.145c.248-.422.414-1.042.613-1.577.239-.593.468-1.105.613-1.752.069-.312.054-.566.102-.876.142-.913.281-1.846.204-2.585l-14.452-168.93c-.205-1.978-5.289-3.358-7.604-3.357l-448.311.263-448.362-.263z" fill="#1f1713"/>
<path d="M181.461 25.868h102.977v29.488H181.461V25.867z" fill="#c40e12"/>
<path stroke="#fff" stroke-width="5" d="M769.738 64.332c0 256.845-.262 256.845-.262 256.845" fill="#1f1713"/>
<path d="M183.339 181.967h46.915v134.651h-46.915V181.967z" fill="#b00"/>
<path stroke="#fff" stroke-width="5" d="M50.37 176.875c717.478 0 718.449-.815 718.449-.815" fill="#fff"/>
<path d="M230.303 181.967h46.915v134.651h-46.915V181.967z" fill="#9f7800"/>
<path d="M277.267 181.967h46.915v134.651h-46.915V181.967z" fill="#6e4515"/>
<path d="M324.231 181.967h46.915v134.651h-46.915V181.967z" fill="#8d6938"/>
<path d="M371.195 181.967h46.914v134.651h-46.914V181.967z" fill="#5b391d"/>
<path d="M418.159 181.967h46.914v134.651h-46.914V181.967z" fill="#412922"/>
<path d="M325.107 181.296h440.496v19.795H325.107v-19.795z" fill="#8d6938"/>
<path d="M372.146 200.539h392.897v19.795H372.146v-19.795z" fill="#5b391d"/>
<path d="M420.579 220.69h344.77v19.794h-344.77V220.69z" fill="#412922"/>
<path stroke="#fff" d="M869.239 146.87c-14.554 0-14.554.144-14.554.144M868.953 231.832c-10.994 0-10.994.143-10.994.143M837.852 146.855c-13.983 0-13.983.144-13.983.144M836.439 232.388c-12.659 0-12.659.143-12.659.143M823.279 147.225c0 34.696.096 34.662.096 34.662M823.571 197.33c0 61.38.096 61.319.096 61.319M833.18 259.058c-19.256 0-19.256.252-19.256.252M830.029 263.629c-12.955 0-12.955.181-12.955.181M826.937 268.213c-6.771 0-6.771.083-6.771.083" fill="#fff"/>
<path stroke="#000" d="M195.999 246.241h21.079v46.619h-21.079v-46.619z" fill="#ca2000"/>
<path stroke="#000" d="M242.963 246.241h21.079v46.619h-21.079v-46.619z" fill="#be8300"/>
<path stroke="#000" d="M289.927 246.241h21.079v46.619h-21.079v-46.619z" fill="#714613"/>
<path stroke="#000" d="M336.891 246.241h21.079v46.619h-21.079v-46.619z" fill="#a97910"/>
<path stroke="#000" d="M383.855 246.241h21.079v46.619h-21.079v-46.619z" fill="#6c4321"/>
<path stroke="#000" d="M430.819 246.241h21.079v46.619h-21.079v-46.619z" fill="#623523"/>
<path stroke="#000" d="M478.013 246.435h21.079v46.618h-21.079v-46.618zM524.977 246.435h21.079v46.618h-21.079v-46.618zM571.941 246.435h21.079v46.618h-21.079v-46.618zM618.905 246.435h21.079v46.618h-21.079v-46.618zM665.869 246.435h21.079v46.618h-21.079v-46.618z" fill="#3e2f28"/>
<path d="M898.386 200.509c16.097 0 29.147 14.257 29.147 31.844 0 17.587-13.05 31.844-29.147 31.844-16.097 0-29.146-14.257-29.146-31.844 0-17.587 13.049-31.844 29.146-31.844z"/>
<path d="M898.386 213.684c9.613 0 17.406 8.359 17.406 18.669 0 10.311-7.793 18.67-17.406 18.67s-17.405-8.359-17.405-18.67c0-10.31 7.792-18.669 17.405-18.669z" fill="#9f743c"/>
<path d="M898.386 219.871c6.428 0 11.638 5.589 11.638 12.482 0 6.894-5.21 12.483-11.638 12.483-6.427 0-11.637-5.589-11.637-12.483 0-6.893 5.21-12.482 11.637-12.482z"/>
<path d="M898.386 115.425c16.097 0 29.147 14.257 29.147 31.844 0 17.587-13.05 31.844-29.147 31.844-16.097 0-29.146-14.257-29.146-31.844 0-17.587 13.049-31.844 29.146-31.844z" fill="#f20000"/>
<path d="M898.386 128.6c9.613 0 17.406 8.358 17.406 18.669 0 10.31-7.793 18.669-17.406 18.669s-17.405-8.359-17.405-18.669c0-10.311 7.792-18.669 17.405-18.669z" fill="#9f743c"/>
<path d="M898.386 134.786c6.428 0 11.638 5.589 11.638 12.483s-5.21 12.482-11.638 12.482c-6.427 0-11.637-5.588-11.637-12.482 0-6.894 5.21-12.483 11.637-12.483z"/>
<g fill="#f50504" fill-opacity=".687">
<path class="display-179" vectornator:shadowAngle="-.434" vectornator:shadowColor="#c40511" vectornator:shadowOpacity="1" vectornator:shadowRadius="5.31" d="M326.505 87.127l-4.357 4.334h-.049v25.225l4.358 4.335 4.339-4.335-.025-.022h.043V91.439l-4.333-4.334.024.022zm0 34.319l-4.357 4.334h-.049v25.225l4.358 4.335 4.339-4.335-.025-.022h.043V125.78l-4.333-4.334h.024zm34.262-.219l-4.333-4.357h-.024v-.045h-25.224l-4.333 4.357 4.333 4.335h-.023v.044h25.224l4.334-4.334h.046zm.342-34.1l-4.358 4.334h-.042v25.225l4.351 4.335 4.339-4.335-.024-.022h.042V91.439l-4.333-4.334.025.022zm0 34.319l-4.358 4.334h-.042v25.225l4.351 4.335 4.339-4.335-.024-.022h.042V125.78l-4.333-4.334h.025zm-.366 34.076l-4.333-4.357h-.024v-.045h-25.225l-4.339 4.357 4.339 4.334h-.022v.045h25.231l4.333-4.335.04.001zm.067-68.63l-4.333-4.358h-.024v-.044h-25.225l-4.333 4.357 4.333 4.334h-.021v.045h25.224l4.333-4.335h.046zM566.166 87.127l-4.357 4.334h-.049v25.225l4.357 4.335 4.34-4.335-.025-.022h.043V91.439l-4.333-4.334.024.022zm0 34.319l-4.357 4.334h-.049v25.225l4.357 4.335 4.34-4.335-.025-.022h.043V125.78l-4.333-4.334h.024zm34.262-.219l-4.333-4.357h-.024v-.045h-25.224l-4.333 4.357 4.333 4.335h-.023v.044h25.224l4.333-4.334h.047zm.341-34.1l-4.357 4.334h-.043v25.225l4.352 4.335 4.339-4.335-.025-.022h.043V91.439l-4.333-4.334.024.022zm0 34.319l-4.357 4.334h-.043v25.225l4.352 4.335 4.339-4.335-.025-.022h.043V125.78l-4.333-4.334h.024zm-.365 34.076l-4.333-4.357h-.025v-.045h-25.224l-4.339 4.357 4.339 4.334h-.022v.045h25.231l4.333-4.335.04.001zm.067-68.63l-4.333-4.358h-.025v-.044h-25.224l-4.333 4.357 4.333 4.334h-.022v.045h25.225l4.333-4.335h.046zM406.392 87.127l-4.357 4.334h-.049v25.225l4.358 4.335 4.339-4.335-.025-.022h.043V91.439l-4.333-4.334.024.022zm0 34.319l-4.357 4.334h-.049v25.225l4.358 4.335 4.339-4.335-.025-.022h.043V125.78l-4.333-4.334h.024zm34.262-.219l-4.333-4.357h-.024v-.045h-25.224l-4.333 4.357 4.333 4.335h-.023v.044h25.224l4.333-4.334h.047zm.342-34.1l-4.358 4.334h-.042v25.225l4.351 4.335 4.339-4.335-.024-.022h.042V91.439l-4.333-4.334.025.022zm0 34.319l-4.358 4.334h-.042v25.225l4.351 4.335 4.339-4.335-.024-.022h.042V125.78l-4.333-4.334h.025zm-.366 34.076l-4.333-4.357h-.024v-.045h-25.225l-4.339 4.357 4.339 4.334h-.022v.045h25.231l4.333-4.335.04.001zm.067-68.63l-4.333-4.358h-.024v-.044h-25.225l-4.333 4.357 4.333 4.334h-.022v.045h25.225l4.333-4.335h.046zM486.279 87.127l-4.357 4.334h-.049v25.225l4.357 4.335 4.34-4.335-.025-.022h.043V91.439l-4.333-4.334.024.022zm0 34.319l-4.357 4.334h-.049v25.225l4.357 4.335 4.34-4.335-.025-.022h.043V125.78l-4.333-4.334h.024zm34.262-.219l-4.333-4.357h-.024v-.045H490.96l-4.333 4.357 4.333 4.335h-.023v.044h25.224l4.333-4.334h.047zm.342-34.1l-4.358 4.334h-.042v25.225l4.351 4.335 4.339-4.335-.024-.022h.042V91.439l-4.333-4.334.025.022zm0 34.319l-4.358 4.334h-.042v25.225l4.351 4.335 4.339-4.335-.024-.022h.042V125.78l-4.333-4.334h.025zm-.366 34.076l-4.333-4.357h-.024v-.045h-25.225l-4.339 4.357 4.339 4.334h-.022v.045h25.231l4.333-4.335.04.001zm.067-68.63l-4.333-4.358h-.024v-.044h-25.225l-4.333 4.357 4.333 4.334h-.022v.045h25.225l4.333-4.335h.046zM452.924 148.325a5.927 5.927 0 015.926 5.927 5.927 5.927 0 01-11.853 0 5.928 5.928 0 015.927-5.927z" vectornator:shadowOffset=".369" vectornator:blendMode="Overlay"/>
</g>
</g>
</svg>