<svg class="svgWrapper192" xmlns:vectornator="http://vectornator.io" xmlns="http://www.w3.org/2000/svg" viewBox="0 0 1024 560" fill-rule="evenodd" clip-rule="evenodd" stroke-linecap="round" stroke-linejoin="round"><g vectornator:layerName="Layer 1"><path fill="#28241b" d="M36.765 0h946.119c18.346 0 33.226 14.783 33.226 33.018v493.311c0 18.235-14.88 33.018-33.226 33.018H36.765c-18.348 0-33.222-14.783-33.222-33.018V33.018C3.543 14.783 18.417 0 36.765 0z"/><path fill="#28241b" d="M75.73 29.332h867.525c16.824 0 30.462 13.247 30.462 29.587v442.05c0 16.34-13.638 29.586-30.462 29.586H75.729c-16.824 0-30.462-13.246-30.462-29.586V58.919c0-16.34 13.638-29.587 30.462-29.587z" stroke-width="3.02" stroke="#fff"/><path fill="#c40e12" d="M104.436 40.306h110.138v28.866H104.436V40.306z"/><path d="M71.081 95.34H596.59v94.813H71.081V95.341z"/><path d="M89.03 92.396h513.182a6.163 6.163 0 016.163 6.164v82.483a6.164 6.164 0 01-6.163 6.164H89.031a6.164 6.164 0 01-6.164-6.164V98.56a6.164 6.164 0 016.164-6.164z"/><path fill="#28241b" d="M82.985 80.329h669.344c7.48 0 13.544 6.064 13.544 13.544v93.012c0 7.48-6.064 13.543-13.544 13.543H82.985c-7.48 0-13.544-6.063-13.544-13.543V93.873c0-7.48 6.064-13.544 13.544-13.544z" stroke-width="3.02" stroke="#fff"/><path d="M85.614 92.875h513.18a6.164 6.164 0 016.164 6.164v82.483a6.164 6.164 0 01-6.164 6.164H85.614a6.164 6.164 0 01-6.165-6.164V99.039a6.164 6.164 0 016.165-6.164z"/><path fill="#a48068" d="M625.336 87.736H749.93a4.126 4.126 0 014.126 4.126v24.05a4.126 4.126 0 01-4.126 4.126H625.336a4.126 4.126 0 01-4.126-4.126v-24.05a4.126 4.126 0 014.126-4.126zM625.336 124.194H749.93a4.126 4.126 0 014.126 4.126v24.05a4.125 4.125 0 01-4.126 4.125H625.336a4.125 4.125 0 01-4.126-4.125v-24.05a4.126 4.126 0 014.126-4.126zM625.336 160.652H749.93a4.125 4.125 0 014.126 4.125v24.05a4.126 4.126 0 01-4.126 4.126H625.336a4.126 4.126 0 01-4.126-4.126v-24.05a4.125 4.125 0 014.126-4.125z"/><path fill="#846350" d="M80.27 216.178h674.775c7.54 0 13.653 7.186 13.653 16.05v110.226c0 8.864-6.113 16.05-13.653 16.05H80.269c-7.54 0-13.653-7.186-13.653-16.05V232.228c0-8.864 6.112-16.05 13.653-16.05z"/><path fill="#8a6145" d="M89.512 291.648h39.654v41.739H89.512v-41.739zM190.593 291.648h39.654v41.739h-39.654v-41.739zM695.996 291.648h39.654v41.739h-39.654v-41.739zM291.673 291.648h39.655v41.739h-39.655v-41.739zM392.754 291.648h39.654v41.739h-39.654v-41.739zM493.835 291.648h39.654v41.739h-39.654v-41.739zM594.915 291.648h39.654v41.739h-39.654v-41.739z" stroke="#000"/><path fill="#9b7b3e" d="M182.908 373.628h56.939c7.858 0 14.229 6.371 14.229 14.23v113.244c0 7.859-6.371 14.23-14.229 14.23h-56.939c-7.859 0-14.23-6.371-14.23-14.23V387.858c0-7.859 6.371-14.23 14.23-14.23z"/><path fill="#846350" d="M281.376 373.628H543.14c7.078 0 12.815 5.81 12.815 12.978v115.748c0 7.168-5.737 12.978-12.815 12.978H281.376c-7.078 0-12.815-5.81-12.815-12.978V386.606c0-7.168 5.737-12.978 12.815-12.978zM584.563 373.628h170.474c6.972 0 12.625 5.81 12.625 12.978v115.748c0 7.168-5.653 12.978-12.625 12.978H584.563c-6.973 0-12.625-5.81-12.625-12.978V386.606c0-7.168 5.652-12.978 12.625-12.978z"/><path fill="none" d="M75.635 375.281h69.071c3.944 0 7.141 3.2 7.141 7.146v124.106a7.144 7.144 0 01-7.141 7.146h-69.07a7.144 7.144 0 01-7.142-7.146V382.427a7.144 7.144 0 017.141-7.146z" stroke-width="2" stroke="#ae0b28"/><path fill="#b89249" d="M190.393 444.623h39.654v41.739h-39.654v-41.739z" stroke="#000"/><path fill="#ba5f4f" d="M97.77 444.623h22.383v41.739H97.771v-41.739z" stroke="#000"/><path fill="#a8895d" d="M291.651 444.623h39.654v41.739h-39.654v-41.739zM392.91 444.623h39.654v41.739H392.91v-41.739zM494.168 444.623h39.654v41.739h-39.654v-41.739z" stroke="#000"/><path fill="#8a6145" d="M696.684 444.623h39.654v41.739h-39.654v-41.739zM595.426 444.623h39.654v41.739h-39.654v-41.739z" stroke="#000"/><path fill="#5b4035" d="M796.136 78.607h143.743c7.839 0 14.193 6.207 14.193 13.865v408.282c0 7.657-6.354 13.865-14.193 13.865H796.136c-7.839 0-14.193-6.208-14.193-13.865V92.472c0-7.658 6.354-13.865 14.193-13.865z"/><path fill="#f20000" d="M908.943 114.438c14.514 0 26.281 11.766 26.281 26.28 0 14.514-11.767 26.28-26.281 26.28s-26.28-11.766-26.28-26.28c0-14.514 11.766-26.28 26.28-26.28z"/><path fill="#9f743c" d="M908.943 125.311c8.668 0 15.694 6.898 15.694 15.407s-7.026 15.407-15.694 15.407c-8.667 0-15.694-6.898-15.694-15.407s7.027-15.407 15.694-15.407z"/><path d="M908.943 130.416c5.796 0 10.494 4.613 10.494 10.302 0 5.689-4.698 10.302-10.494 10.302-5.795 0-10.493-4.613-10.493-10.302 0-5.689 4.698-10.302 10.493-10.302z"/><path fill="#f20000" d="M825.981 114.438c14.514 0 26.28 11.766 26.28 26.28 0 14.514-11.766 26.28-26.28 26.28-14.514 0-26.281-11.766-26.281-26.28 0-14.514 11.767-26.28 26.281-26.28z"/><path fill="#9f743c" d="M825.981 125.311c8.667 0 15.694 6.898 15.694 15.407s-7.027 15.407-15.694 15.407c-8.668 0-15.694-6.898-15.694-15.407s7.026-15.407 15.694-15.407z"/><path d="M825.981 130.416c5.795 0 10.493 4.613 10.493 10.302 0 5.689-4.698 10.302-10.493 10.302s-10.493-4.613-10.493-10.302c0-5.689 4.698-10.302 10.493-10.302zM866.782 197.553c14.514 0 26.28 11.766 26.28 26.28 0 14.514-11.766 26.281-26.28 26.281-14.515 0-26.281-11.767-26.281-26.281s11.766-26.28 26.281-26.28z"/><path fill="#9f743c" d="M866.782 208.426c8.667 0 15.694 6.898 15.694 15.407s-7.027 15.407-15.694 15.407c-8.668 0-15.694-6.898-15.694-15.407s7.026-15.407 15.694-15.407z"/><path d="M866.782 213.532c5.795 0 10.493 4.612 10.493 10.301 0 5.69-4.698 10.302-10.493 10.302-5.796 0-10.494-4.612-10.494-10.302 0-5.689 4.698-10.301 10.494-10.301zM908.275 420.246c14.514 0 26.28 11.766 26.28 26.28 0 14.514-11.766 26.28-26.28 26.28-14.515 0-26.281-11.766-26.281-26.28 0-14.514 11.766-26.28 26.281-26.28z"/><path fill="#9f743c" d="M908.275 431.119c8.667 0 15.694 6.898 15.694 15.407s-7.027 15.407-15.694 15.407c-8.668 0-15.694-6.898-15.694-15.407s7.026-15.407 15.694-15.407z"/><path d="M908.275 436.224c5.795 0 10.493 4.613 10.493 10.302 0 5.69-4.698 10.302-10.493 10.302-5.796 0-10.494-4.612-10.494-10.302 0-5.689 4.698-10.302 10.494-10.302zM825.312 420.246c14.515 0 26.281 11.766 26.281 26.28 0 14.514-11.766 26.28-26.281 26.28-14.514 0-26.28-11.766-26.28-26.28 0-14.514 11.766-26.28 26.28-26.28z"/><path fill="#9f743c" d="M825.312 431.119c8.668 0 15.694 6.898 15.694 15.407s-7.026 15.407-15.694 15.407c-8.667 0-15.694-6.898-15.694-15.407s7.027-15.407 15.694-15.407z"/><path d="M825.312 436.224c5.796 0 10.494 4.613 10.494 10.302 0 5.69-4.698 10.302-10.494 10.302-5.795 0-10.493-4.612-10.493-10.302 0-5.689 4.698-10.302 10.493-10.302z"/><path fill="#f20000" d="M907.899 338.357c14.514 0 26.28 11.766 26.28 26.281 0 14.514-11.766 26.28-26.28 26.28-14.515 0-26.281-11.766-26.281-26.28 0-14.515 11.766-26.281 26.281-26.281z"/><path fill="#9f743c" d="M907.899 349.23c8.667 0 15.694 6.898 15.694 15.408 0 8.509-7.027 15.407-15.694 15.407-8.668 0-15.694-6.898-15.694-15.407 0-8.51 7.026-15.408 15.694-15.408z"/><path d="M907.899 354.336c5.795 0 10.493 4.612 10.493 10.302 0 5.689-4.698 10.301-10.493 10.301-5.796 0-10.494-4.612-10.494-10.301 0-5.69 4.698-10.302 10.494-10.302z"/><g><path fill="#f20000" d="M824.936 338.357c14.515 0 26.281 11.766 26.281 26.281 0 14.514-11.766 26.28-26.281 26.28-14.514 0-26.28-11.766-26.28-26.28 0-14.515 11.766-26.281 26.28-26.281z"/><path fill="#9f743c" d="M824.936 349.23c8.668 0 15.694 6.898 15.694 15.408 0 8.509-7.026 15.407-15.694 15.407-8.667 0-15.694-6.898-15.694-15.407 0-8.51 7.027-15.408 15.694-15.408z"/><path d="M824.936 354.336c5.796 0 10.494 4.612 10.494 10.302 0 5.689-4.698 10.301-10.494 10.301-5.795 0-10.493-4.612-10.493-10.301 0-5.69 4.698-10.302 10.493-10.302z"/></g><g fill="#f50504" class="display-192" fill-opacity=".687"><g vectornator:shadowOffset=".438" vectornator:shadowOpacity="1" vectornator:shadowAngle=".951" vectornator:shadowColor="#e10411" vectornator:shadowRadius="3.791"><path vectornator:shadowAngle="-.434" vectornator:shadowColor="#c40511" vectornator:shadowOpacity="1" vectornator:shadowRadius="5.31" d="M469.111 106.558l-4.486 4.462.02.024h-.045v25.968l4.486 4.463 4.461-4.463-.019-.022h.044V111.02zM469.111 141.889l-4.486 4.462.02.023h-.045v25.969l4.486 4.463 4.461-4.463-.019-.023h.044v-25.969zM504.384 141.663l-4.467-4.485-.02.022v-.045H473.93l-4.466 4.485 4.467 4.463.019-.024v.046h25.968zM504.735 106.558l-4.486 4.462.025.024h-.05v25.968l4.486 4.463 4.46-4.463-.018-.022h.044V111.02zM504.735 141.889l-4.486 4.462.025.023h-.05v25.969l4.486 4.463 4.46-4.463-.018-.023h.044v-25.969zM504.352 176.97l-4.46-4.486-.026.023v-.046h-25.968l-4.46 4.486 4.46 4.462.026-.023v.046h25.967zM504.428 106.316l-4.468-4.486-.018.023v-.046h-25.968l-4.467 4.485 4.467 4.462.019-.022v.046H499.96z" vectornator:shadowOffset=".369" vectornator:blendMode="Overlay"/></g><g vectornator:shadowRadius="3.791" vectornator:shadowColor="#e10411" vectornator:shadowAngle=".951" vectornator:shadowOpacity="1" vectornator:shadowOffset=".438"><path vectornator:blendMode="Overlay" vectornator:shadowOffset=".369" d="M541.953 106.558l-4.486 4.462.019.024h-.044v25.968l4.486 4.463 4.46-4.463-.018-.022h.044V111.02zM541.953 141.889l-4.486 4.462.019.023h-.044v25.969l4.486 4.463 4.46-4.463-.018-.023h.044v-25.969zM577.225 141.663l-4.467-4.485-.019.022v-.045h-25.968l-4.467 4.485 4.467 4.463.02-.024v.046h25.968zM577.577 106.558l-4.486 4.462.025.024h-.05v25.968l4.486 4.463 4.46-4.463-.018-.022h.044V111.02zM577.577 141.889l-4.486 4.462.025.023h-.05v25.969l4.486 4.463 4.46-4.463-.018-.023h.044v-25.969zM577.194 176.97l-4.46-4.486-.026.023v-.046H546.74l-4.46 4.486 4.46 4.462.025-.023v.046h25.968zM577.27 106.316l-4.468-4.486-.019.023v-.046h-25.968l-4.467 4.485 4.467 4.462.02-.022v.046h25.968z" vectornator:shadowRadius="5.31" vectornator:shadowOpacity="1" vectornator:shadowColor="#c40511" vectornator:shadowAngle="-.434"/></g><g vectornator:shadowRadius="3.791" vectornator:shadowColor="#e10411" vectornator:shadowAngle=".951" vectornator:shadowOpacity="1" vectornator:shadowOffset=".438"><path vectornator:blendMode="Overlay" vectornator:shadowOffset=".369" d="M396.27 106.558l-4.486 4.462.019.024h-.044v25.968l4.486 4.463 4.46-4.463-.018-.022h.043V111.02zM396.27 141.889l-4.486 4.462.019.023h-.044v25.969l4.486 4.463 4.46-4.463-.018-.023h.043v-25.969zM431.542 141.663l-4.467-4.485-.019.022v-.045h-25.968l-4.467 4.485 4.467 4.463.019-.024v.046h25.968zM431.893 106.558l-4.486 4.462.026.024h-.05v25.968l4.485 4.463 4.461-4.463-.019-.022h.044V111.02zM431.893 141.889l-4.486 4.462.026.023h-.05v25.969l4.485 4.463 4.461-4.463-.019-.023h.044v-25.969zM431.51 176.97l-4.46-4.486-.025.023v-.046h-25.968l-4.461 4.486 4.46 4.462.026-.023v.046h25.968zM431.586 106.316l-4.467-4.486-.019.023v-.046h-25.968l-4.467 4.485 4.467 4.462.019-.022v.046h25.968z" vectornator:shadowRadius="5.31" vectornator:shadowOpacity="1" vectornator:shadowColor="#c40511" vectornator:shadowAngle="-.434"/></g><g vectornator:shadowRadius="3.791" vectornator:shadowColor="#e10411" vectornator:shadowAngle=".951" vectornator:shadowOpacity="1" vectornator:shadowOffset=".438"><path vectornator:blendMode="Overlay" vectornator:shadowOffset=".369" d="M323.428 106.558l-4.486 4.462.019.024h-.044v25.968l4.486 4.463 4.46-4.463-.018-.022h.044V111.02zM323.428 141.889l-4.486 4.462.019.023h-.044v25.969l4.486 4.463 4.46-4.463-.018-.023h.044v-25.969zM358.7 141.663l-4.467-4.485-.019.022v-.045h-25.968l-4.467 4.485 4.467 4.463.02-.024v.046h25.968zM359.052 106.558l-4.486 4.462.025.024h-.05v25.968l4.486 4.463 4.46-4.463-.018-.022h.043V111.02zM359.052 141.889l-4.486 4.462.025.023h-.05v25.969l4.486 4.463 4.46-4.463-.018-.023h.043v-25.969zM358.669 176.97l-4.46-4.486-.026.023v-.046h-25.968l-4.46 4.486 4.46 4.462.025-.023v.046h25.968zM358.744 106.316l-4.467-4.486-.019.023v-.046H328.29l-4.467 4.485 4.467 4.462.02-.022v.046h25.968z" vectornator:shadowRadius="5.31" vectornator:shadowOpacity="1" vectornator:shadowColor="#c40511" vectornator:shadowAngle="-.434"/></g><g vectornator:shadowRadius="3.791" vectornator:shadowColor="#e10411" vectornator:shadowAngle=".951" vectornator:shadowOpacity="1" vectornator:shadowOffset=".438"><path vectornator:blendMode="Overlay" vectornator:shadowOffset=".369" d="M250.586 106.558l-4.486 4.462.02.024h-.045v25.968l4.486 4.463 4.461-4.463-.019-.022h.044V111.02zM250.586 141.889l-4.486 4.462.02.023h-.045v25.969l4.486 4.463 4.461-4.463-.019-.023h.044v-25.969zM285.859 141.663l-4.467-4.485-.02.022v-.045h-25.968l-4.466 4.485 4.467 4.463.019-.024v.046h25.968zM286.21 106.558l-4.486 4.462.025.024h-.05v25.968l4.486 4.463 4.46-4.463-.018-.022h.044V111.02zM286.21 141.889l-4.486 4.462.025.023h-.05v25.969l4.486 4.463 4.46-4.463-.018-.023h.044v-25.969zM285.827 176.97l-4.46-4.486-.026.023v-.046h-25.968l-4.46 4.486 4.46 4.462.025-.023v.046h25.968zM285.903 106.316l-4.468-4.486-.018.023v-.046h-25.968l-4.467 4.485 4.467 4.462.018-.022v.046h25.968z" vectornator:shadowRadius="5.31" vectornator:shadowOpacity="1" vectornator:shadowColor="#c40511" vectornator:shadowAngle="-.434"/></g><g vectornator:shadowRadius="3.791" vectornator:shadowColor="#e10411" vectornator:shadowAngle=".951" vectornator:shadowOpacity="1" vectornator:shadowOffset=".438"><path vectornator:blendMode="Overlay" vectornator:shadowOffset=".369" d="M177.745 106.558l-4.486 4.462.019.024h-.044v25.968l4.486 4.463 4.46-4.463-.018-.022h.043V111.02zM177.745 141.889l-4.486 4.462.019.023h-.044v25.969l4.486 4.463 4.46-4.463-.018-.023h.043v-25.969zM213.017 141.663l-4.467-4.485-.019.022v-.045h-25.968l-4.467 4.485 4.467 4.463.019-.024v.046h25.968zM213.368 106.558l-4.486 4.462.025.024h-.05v25.968l4.486 4.463 4.461-4.463-.019-.022h.044V111.02zM213.368 141.889l-4.486 4.462.025.023h-.05v25.969l4.486 4.463 4.461-4.463-.019-.023h.044v-25.969zM212.986 176.97l-4.461-4.486-.025.023v-.046h-25.968l-4.461 4.486 4.46 4.462.026-.023v.046h25.968zM213.06 106.316l-4.466-4.486-.019.023v-.046h-25.968l-4.467 4.485 4.467 4.462.019-.022v.046h25.968z" vectornator:shadowRadius="5.31" vectornator:shadowOpacity="1" vectornator:shadowColor="#c40511" vectornator:shadowAngle="-.434"/></g><g vectornator:shadowRadius="3.791" vectornator:shadowColor="#e10411" vectornator:shadowAngle=".951" vectornator:shadowOpacity="1" vectornator:shadowOffset=".438"><path vectornator:blendMode="Overlay" vectornator:shadowOffset=".369" d="M140.527 106.558l-4.486 4.462.025.024h-.05v25.968l4.485 4.463 4.461-4.463-.019-.022h.044V111.02zM140.527 141.889l-4.486 4.462.025.023h-.05v25.969l4.485 4.463 4.461-4.463-.019-.023h.044v-25.969z" vectornator:shadowRadius="5.31" vectornator:shadowOpacity="1" vectornator:shadowColor="#c40511" vectornator:shadowAngle="-.434"/></g></g></g></svg>