<?xml version="1.0" encoding="utf-8"?>
<!-- Generator: Adobe Illustrator 19.2.0, SVG Export Plug-In . SVG Version: 6.00 Build 0)  -->
<svg version="1.1" id="Layer_1" xmlns="http://www.w3.org/2000/svg" xmlns:xlink="http://www.w3.org/1999/xlink" x="0px" y="0px"
	 viewBox="0 0 204.8 105.7" style="enable-background:new 0 0 204.8 105.7;" xml:space="preserve">
<style type="text/css">
	.st0{fill:none;stroke:#1993D2;stroke-width:10;stroke-linejoin:round;stroke-miterlimit:10;}
	.st1{fill:#1993D2;}
	.st2{fill:#FFFFFF;}
</style>
<line class="st0" x1="38.2" y1="31.1" x2="38.2" y2="50.3"/>
<g>
	<path class="st1" d="M141.8,41.8c0.2,5.1,0.1,11.9,0,19.3h-5.2V41.8H141.8 M146.6,36.8h-4.8h-5.2h-5v5v19.3v5h5h5.2h4.9l0.1-4.9
		c0.2-9.1,0.2-15.1,0-19.6L146.6,36.8L146.6,36.8z"/>
</g>
<rect x="179.4" y="66.2" class="st1" width="16.8" height="25"/>
<rect x="43.3" y="22.7" class="st1" width="89.9" height="43.5"/>
<g>
	<g>
		<g>
			<path class="st2" d="M59.6,48l-0.3-0.1c-3.7-1-4.1-3.6-4.1-4.7V30.6l-1.6-4.2h-7.7v17.2l-0.1,0.3c-1,3.7-3.6,4.1-4.7,4.1h-0.9
				l-0.3-0.1c-3.7-0.9-4.1-3.6-4.1-4.7V6.9l0.1-0.3c0.9-3.7,3.6-4.1,4.7-4.1h0.9l0.3,0.1c3.7,1,4.1,3.6,4.1,4.7v9h11.3
				c2.5,0,4.3,2,5.5,5.8c2.6,5.9,2.6,6.4,2.6,7v14.6l-0.1,0.3c-0.9,3.7-3.6,4.1-4.7,4.1H59.6z"/>
			<path class="st1" d="M41.1,5c1.5,0.4,2.2,1.1,2.2,2.2v11.5h13.8c1.3,0,2.3,1.4,3.2,4.2c1.6,3.7,2.4,5.8,2.4,6.1v14.3
				c-0.4,1.5-1.1,2.2-2.2,2.2h-0.6c-1.5-0.4-2.2-1.1-2.2-2.2V30.1l-2.4-6.2H43.3v19.3c-0.4,1.5-1.1,2.2-2.2,2.2h-0.6
				c-1.5-0.4-2.2-1.1-2.2-2.2v-36C38.6,5.7,39.3,5,40.5,5H41.1 M41.7,0h-0.6h-0.6c-2.7,0-6,1.6-7.1,6l-0.1,0.6v0.6v36
				c0,2.7,1.6,6,6,7.1l0.6,0.1h0.6h0.6c2.7,0,5.9-1.6,7.1-6l0.2-0.6v-0.6V28.9h3.5l0.8,2.2v12.2c0,2.7,1.6,5.9,6,7.1l0.6,0.2h0.6
				h0.6c2.7,0,6-1.6,7.1-6l0.1-0.6v-0.6V29c0-1.2-0.1-1.8-2.7-7.8c-1.1-3.5-3.3-7.4-7.9-7.4h-8.8V7.2c0-2.7-1.6-5.9-6-7.1L41.7,0
				L41.7,0z"/>
		</g>
		<g>
			<path class="st2" d="M87.1,48c-0.8,0-2.9-0.2-4-2.4C79.2,48,78.7,48,78,48h-0.7c-0.9,0-1.9-0.3-7-3.7c-5.5-3.4-6.9-4.5-7.2-5.6
				c-0.3-0.6-0.4-1.2-0.4-1.8v-0.7c0-2.5,2.5-4.2,5.3-5.7l9.8-6.3L77.6,24c-8.1,5.3-8.4,5.3-9.3,5.3h-0.5c-2.2,0-3.9-1.3-4.8-3.7
				l-0.1-0.4v-1.3c0-2.8,2.8-4.6,5.3-5.9c7.7-5.1,8.2-5.1,9.1-5.1h0.7c0.9,0,1.9,0.2,7,3.7c5.8,3.6,7,4.6,7.2,5.8l0.3,0.9v20.3
				l-0.1,0.3c-0.9,3.7-3.6,4.1-4.7,4.1H87.1z M77.7,36.9l4.6-3v-0.4l-4.9,3.1L77.7,36.9z"/>
			<path class="st1" d="M77.9,15.4c0.5,0,2.4,1.1,5.6,3.3c4.1,2.5,6.1,3.9,6.1,4.3l0.3,0.8v19.5c-0.4,1.5-1.1,2.2-2.2,2.2h-0.6
				c-1.4,0-2.2-1-2.3-3.1v-0.9h-0.1c-4,2.6-6.2,4-6.6,4h-0.7c-0.5,0-2.4-1.1-5.6-3.3c-4.1-2.5-6.1-3.9-6.1-4.3
				c-0.2-0.4-0.3-0.7-0.3-1v-0.7c0-0.9,1.4-2.1,4.1-3.6l13.2-8.5v-0.1l-5.1-3.1c-5.9,3.8-8.9,5.7-9.3,5.7h-0.5c-1.1,0-2-0.7-2.4-2
				v-0.8c0-1.1,1.4-2.4,4.1-3.8c4.8-3.2,7.4-4.8,7.8-4.8H77.9 M77.7,39.8l7-4.6V29h-0.1l-12,7.6v0.1L77.7,39.8 M77.9,10.4h-0.7
				c-1.7,0-2.5,0.2-10.4,5.5c-2,1-6.5,3.6-6.5,8.1v0.8v0.9l0.3,0.8c0.6,1.7,1.7,3.1,3,4c-1.9,1.5-3.3,3.3-3.3,5.8V37
				c0,0.9,0.2,1.8,0.6,2.7c0.8,2.3,3.3,3.8,8.1,6.8c5.1,3.5,6.6,4.1,8.3,4.1H78c1.2,0,2-0.2,4.5-1.7c1.4,1.2,3.1,1.7,4.6,1.7h0.6
				c2.7,0,6-1.6,7.1-6l0.1-0.6v-0.6V23.7v-0.9L94.6,22l-0.1-0.4c-0.6-2.5-3.1-4.1-8.3-7.2C81.1,11,79.6,10.4,77.9,10.4L77.9,10.4z"
				/>
		</g>
		<g>
			<path class="st2" d="M94.4,48l-0.3-0.1C90.4,47,90,44.4,90,43.3V24.6l0.1-0.3c0.9-3.7,3.6-4.1,4.7-4.1h17.1l0.3,0.1
				c3.7,0.9,4.1,3.6,4.1,4.7v0.6c0,1-0.4,4.5-5.5,4.8l-0.1,0h-10.5v7.4h10.2c3.8,0,5.1,2.1,5.6,3.3l0.1,0.2l0.2,1.1v1.1l-0.1,0.3
				c-0.9,3.7-3.6,4.1-4.7,4.1H94.4z"/>
			<path class="st1" d="M111.5,22.7c1.5,0.4,2.2,1.1,2.2,2.2v0.6c0,1.4-1.1,2.2-3.2,2.3H97.7v12.4h12.7c1.7,0,2.8,0.6,3.3,1.7
				l0.1,0.6v0.6c-0.4,1.5-1.1,2.2-2.2,2.2H94.7c-1.5-0.4-2.2-1.1-2.2-2.2V25c0.4-1.5,1.1-2.2,2.2-2.2H111.5 M112.2,17.7h-0.6H94.7
				c-2.7,0-6,1.6-7.1,6l-0.1,0.6V25v18.3c0,2.7,1.6,6,6,7.1l0.6,0.1h0.6h16.8c2.7,0,6-1.6,7.1-6l0.1-0.6v-0.6v-0.6v-0.4l-0.1-0.4
				l-0.1-0.6l-0.1-0.5l-0.2-0.5c-0.6-1.5-2.5-4.9-7.9-4.9h-7.7v-2.4h7.9h0.2l0.2,0c5.8-0.4,7.8-4.2,7.8-7.3V25c0-2.7-1.6-6-6-7.1
				L112.2,17.7L112.2,17.7z"/>
		</g>
		<g>
			<path class="st2" d="M138.9,48c-0.9,0-3.8-0.3-4.7-4.3l0-0.2l-0.1-3.8l0-1.6l-5.1-5.7c-1,1.1-2.6,2.9-5.1,5.8v5.4l-0.1,0.3
				c-1,3.7-3.6,4.1-4.7,4.1h-0.9L118,48c-3.7-0.9-4.1-3.6-4.1-4.7V6.9l0.1-0.3c0.9-3.7,3.6-4.1,4.7-4.1h0.9l0.3,0.1
				c3.7,1,4.1,3.6,4.1,4.7v15.6l12-13.4l0.2-0.2c0.9-0.6,1.8-1,2.8-1h0.5c0.9,0,3.9,0.3,4.8,4.4l0.1,0.3v0.3c0,1.7-1,3.5-2.9,5.3
				l-5.5,6.2c6.1,6.9,7.4,8.4,7.7,8.9l0.3,0.5l0.3,2v7.4l-0.1,0.3c-0.9,3.7-3.6,4.1-4.7,4.1H138.9z"/>
			<path class="st1" d="M119.2,5c1.5,0.4,2.2,1.1,2.2,2.2v22.1l16.2-18c0.5-0.3,0.9-0.5,1.3-0.5h0.5c1.2,0,2,0.8,2.3,2.4
				c0,1-0.7,2.2-2.2,3.6l-7,7.9c5.5,6.2,8.5,9.7,9.1,10.4l0.2,1.2v6.9c-0.4,1.5-1.1,2.2-2.2,2.2h-0.6c-1.2,0-1.9-0.8-2.2-2.3
				l-0.1-3.6v-2.4l-7.5-8.5c-0.8,0.7-3.3,3.5-7.6,8.6v6c-0.4,1.5-1.1,2.2-2.2,2.2h-0.6c-1.5-0.4-2.2-1.1-2.2-2.2v-36
				c0.4-1.5,1.1-2.2,2.2-2.2H119.2 M119.8,0h-0.6h-0.6c-2.7,0-6,1.6-7.1,6l-0.1,0.6v0.6v36c0,2.7,1.6,6,6,7.1l0.6,0.1h0.6h0.6
				c2.7,0,5.9-1.6,7.1-6l0.2-0.6v-0.6v-4.1c1-1.2,1.9-2.2,2.6-3l2.6,2.9v0.5v0.1l0,0.1l0.1,3.6l0,0.5l0.1,0.5c1,4.6,4.3,6.3,7.1,6.3
				h0.6c2.7,0,6-1.6,7.1-6l0.1-0.6v-0.6v-6.9v-0.4l-0.1-0.4l-0.2-1.2l-0.2-1.2l-0.7-0.9c-0.3-0.4-0.8-1.1-6.4-7.5l3.9-4.4
				c2.5-2.3,3.7-4.6,3.7-7.1v-0.5l-0.1-0.5c-1-4.7-4.4-6.4-7.2-6.4h-0.5c-1.5,0-2.9,0.5-4.2,1.4l-0.4,0.3L133.9,8l-7.5,8.3v-9
				c0-2.7-1.6-5.9-6-7.1L119.8,0L119.8,0z"/>
		</g>
	</g>
	<g>
		<g>
			<path class="st2" d="M20,91.8c-1,0-2-0.3-7.7-4.1c-6.5-4-7.9-5.1-8.4-5.6l-0.1-0.1l-0.1-0.2c-0.7-0.9-1-1.9-1-2.8v-1.2l0.1-0.4
				c1.2-3.4,3.4-3.9,4.7-3.9h0.4c1,0,2.1,0.3,6.9,3.5l5.6,3.6l3-1.9C13.3,72.4,7,68.4,4.1,66.4L3.5,66l-1-2.4v-1.2
				c0-2.8,2.9-4.7,5.2-5.9c10.8-7,11.1-7,12.1-7h0.8c1,0,2,0.3,7.8,4.1c6.5,4,7.9,5.1,8.4,5.6l0.1,0.1l0.1,0.2c0.7,0.9,1,1.9,1,2.8
				v1.2l-0.1,0.4c-1.2,3.4-3.4,3.9-4.7,3.9h-0.4c-1,0-2.1-0.3-6.9-3.5l-5.6-3.6l-3,1.9l19.3,12.2l0.3,0.3c0.8,1.1,1.3,2.2,1.3,3.2
				v0.7c0,2.1-1.7,3.9-5.9,6.1c-10,6.6-10.5,6.6-11.5,6.6H20z"/>
			<path class="st1" d="M20.6,51.9c0.5,0,2.7,1.2,6.4,3.7c4.8,3,7.5,4.7,8.1,5.3c0.4,0.5,0.5,1,0.5,1.4v0.7
				c-0.5,1.5-1.3,2.2-2.3,2.2h-0.4c-0.6,0-2.5-1-5.5-3.1l-7-4.5l-7.6,4.8v0.1l22.2,14c0.5,0.6,0.7,1.2,0.7,1.7v0.7
				c0,1-1.6,2.3-4.7,3.9c-6.3,4.2-9.7,6.3-10.2,6.3H20c-0.5,0-2.7-1.2-6.4-3.7c-4.8-3-7.5-4.7-8.1-5.3c-0.4-0.5-0.5-1-0.5-1.4v-0.7
				c0.5-1.5,1.3-2.2,2.3-2.2h0.4c0.6,0,2.5,1,5.5,3.1l7,4.5l7.6-4.8v-0.1C16.1,71.2,8.7,66.5,5.5,64.3L5,63.1v-0.7
				c0-1.1,1.3-2.4,3.9-3.7c6.9-4.5,10.5-6.7,10.8-6.7H20.6 M20.6,46.9h-0.8c-1.7,0-2,0-13.3,7.3c-2,1-6.4,3.5-6.4,8v0.7v1L0.4,65
				l0.5,1.3l0.6,1.4l1.2,0.8c0.9,0.6,2.2,1.5,3.8,2.5c-4.1,0.5-5.8,4.3-6.2,5.5L0,77.3v0.8v0.7c0,1.5,0.5,2.9,1.5,4.3l0.2,0.3
				L2,83.8c0.7,0.7,1.9,1.6,8.9,6c5.8,3.9,7.3,4.5,9.1,4.5h0.7c1.7,0,2.2,0,12.7-7c3.7-2,7.1-4.4,7.1-8.2v-0.7
				c0-1.6-0.6-3.2-1.8-4.8l-0.5-0.7l-0.7-0.5L34,70.2c4.1-0.5,5.8-4.3,6.2-5.5l0.3-0.8v-0.8v-0.7c0-1.5-0.5-2.9-1.5-4.3l-0.2-0.3
				l-0.3-0.3c-0.7-0.7-1.9-1.6-8.9-6C23.9,47.5,22.4,46.9,20.6,46.9L20.6,46.9z"/>
		</g>
		<g>
			<path class="st2" d="M60.5,91.8l-0.3-0.1c-3.8-1-4.2-3.7-4.2-4.8V73.7l-1.7-4.4H46v18l-0.1,0.3c-1,3.8-3.7,4.2-4.8,4.2h-0.9
				l-0.3-0.1c-3.8-1-4.2-3.6-4.2-4.8V49.1l0.1-0.3c1-3.8,3.6-4.2,4.8-4.2h1l0.3,0.1c3.8,1,4.2,3.7,4.2,4.8v9.5h11.9
				c2.5,0,4.4,2,5.6,6c2.7,6.2,2.7,6.6,2.7,7.2v15.2l-0.1,0.3c-1,3.8-3.6,4.2-4.8,4.2H60.5z"/>
			<path class="st1" d="M41.2,47c1.6,0.4,2.3,1.2,2.3,2.3v12h14.4c1.3,0,2.4,1.4,3.3,4.3c1.7,3.9,2.5,6,2.5,6.4v14.8
				c-0.4,1.6-1.2,2.3-2.3,2.3h-0.6c-1.6-0.4-2.3-1.2-2.3-2.3V73.2l-2.5-6.5H43.5v20.1c-0.4,1.6-1.2,2.3-2.3,2.3h-0.6
				c-1.6-0.4-2.3-1.2-2.3-2.3V49.4c0.4-1.6,1.2-2.3,2.3-2.3H41.2 M41.8,42h-0.6h-0.6c-2.7,0-6.1,1.6-7.2,6.1l-0.1,0.6v0.6v37.5
				c0,2.7,1.6,6.1,6.1,7.2l0.6,0.1h0.6h0.6c4.1,0,6.4-3.1,7.2-6.1l0.2-0.6v-0.6V71.8h4l1,2.4v12.7c0,4.1,3.1,6.4,6.1,7.2l0.6,0.2
				h0.6h0.6c2.7,0,6.1-1.6,7.2-6.1l0.1-0.6v-0.6V72.1c0-1.2-0.1-1.9-2.8-8.1c-1.1-3.5-3.4-7.6-8-7.6h-9.4v-7c0-4.1-3.1-6.4-6.1-7.2
				L41.8,42L41.8,42z"/>
		</g>
		<g>
			<path class="st2" d="M78.9,91.8c-0.9,0-1.9-0.3-7.2-3.8c-6-3.7-7.3-4.7-7.5-6l-0.4-1V66.8c0-2.8,2.9-4.7,5.5-6.1
				c8-5.3,8.5-5.3,9.4-5.3h0.7c0.9,0,1.9,0.3,7.2,3.8c5.7,3.5,7.1,4.6,7.4,5.8c0.3,0.6,0.4,1.2,0.4,1.8v0.7c0,2-1.6,3.7-5.5,5.9
				L78.7,80l0.6,0.4c8.5-5.5,8.8-5.5,9.7-5.5h0.5c2.2,0,4,1.4,4.9,3.8l0.1,0.4v1.3c0,2.8-2.9,4.7-5.5,6.1c-8,5.3-8.5,5.3-9.4,5.3
				H78.9z M74.3,70.6l5.4-3.5l-0.6-0.4c-2.7,1.7-4.1,2.6-4.9,3.1V70.6z"/>
			<path class="st1" d="M79.5,57.9c0.5,0,2.5,1.1,5.8,3.4c4.2,2.6,6.4,4.1,6.4,4.5c0.2,0.4,0.3,0.7,0.3,1.1v0.7
				c0,0.9-1.4,2.2-4.2,3.7L74,80v0.1l5.3,3.2c6.1-4,9.3-5.9,9.7-5.9h0.5c1.2,0,2,0.7,2.5,2.1v0.8c0,1.1-1.4,2.5-4.2,3.9
				c-5,3.3-7.7,5-8.2,5h-0.7c-0.5,0-2.5-1.1-5.8-3.4c-4.2-2.6-6.4-4.1-6.4-4.5l-0.3-0.8V66.8c0-1.1,1.4-2.5,4.2-3.9
				c5-3.3,7.7-5,8.2-5H79.5 M71.8,75h0.1l12.5-8V67l-5.3-3.2c-4.8,3-7.2,4.6-7.3,4.8V75 M79.5,52.9h-0.7c-1.7,0-2.6,0.2-10.7,5.7
				c-2.1,1.1-6.7,3.7-6.7,8.2v13.8v0.9l0.3,0.8l0.1,0.4c0.6,2.5,3.1,4.1,8.5,7.4c5.3,3.6,6.8,4.2,8.5,4.2h0.7
				c1.7,0,2.6-0.2,10.7-5.7c2.1-1.1,6.7-3.7,6.7-8.2v-0.8v-0.9l-0.3-0.8c-0.7-1.9-1.8-3.3-3.2-4.3c2-1.5,3.5-3.5,3.5-6v-0.7
				c0-0.9-0.2-1.8-0.6-2.7c-0.7-2.3-3.3-3.9-8.4-7C82.8,53.5,81.3,52.9,79.5,52.9L79.5,52.9z"/>
		</g>
		<g>
			<path class="st2" d="M96.7,103.2l-0.3-0.1c-3.8-1-4.2-3.6-4.2-4.8V72.7c0-1.3,0.7-2.8,4.2-6.4c6.3-7.2,8.1-9,8.9-9.7l0.5-0.5
				l1.6-0.2h0.8c1.8,0,3.4,1.2,5.7,4.1c3.7,3.8,4.4,5.3,4.4,6.6v0.9l-0.1,0.3c-1,3.8-3.6,4.2-4.8,4.2H113c-1.6,0-3.1-1-5-3.3
				c-2.1,2.3-3.4,3.8-4.3,4.7h1.7c3.8,0,5.2,2,5.6,3.2l0,0.1l0.5,1.9l-0.1,0.6c-0.9,4.2-3.7,4.6-4.9,4.6h-4v13.1
				c0,3.8-2.1,5.2-3.4,5.7L99,103l-1.1,0.2H96.7z"/>
			<path class="st1" d="M108.3,58.5c0.8,0,2.1,1.1,3.8,3.3c2.5,2.6,3.8,4.2,3.8,5v0.6c-0.4,1.6-1.2,2.3-2.3,2.3H113
				c-0.8,0-2.1-1.1-3.8-3.3l-1.2-1.2c-5.2,5.7-7.8,8.6-7.8,8.9v2h5.3c1.8,0,2.9,0.5,3.3,1.6l0.3,1.2c-0.4,1.8-1.2,2.7-2.4,2.7h-6.5
				v15.6c0,1.8-0.6,2.9-1.8,3.4l-0.6,0.1H97c-1.6-0.4-2.3-1.2-2.3-2.3V72.7c0-0.7,1.2-2.3,3.5-4.7c4.6-5.3,7.5-8.4,8.7-9.4l0.7-0.1
				H108.3 M108.3,53.5h-0.6h-0.4l-0.4,0.1l-0.7,0.1l-1.4,0.2l-1.1,0.9c-1,0.8-2.9,2.7-9.2,9.9c-3.6,3.7-4.8,5.8-4.8,8v25.6
				c0,2.7,1.6,6.1,6.1,7.2l0.6,0.1H97h0.6h0.4l0.4-0.1l0.6-0.1l0.5-0.1l0.5-0.2c1.5-0.6,5-2.5,5-8.1V86.6h1.5c2.8,0,6.3-1.7,7.3-6.6
				l0.3-1.2l-0.3-1.2l-0.3-1.2l-0.1-0.2l-0.1-0.2c-0.1-0.3-0.3-0.8-0.6-1.3c0.1,0,0.1,0,0.2,0h0.6c2.7,0,6.1-1.6,7.2-6.1l0.1-0.6
				v-0.6v-0.6c0-2.4-1.2-4.4-5.1-8.3C113.8,55.8,111.5,53.5,108.3,53.5L108.3,53.5z"/>
		</g>
		<g>
			<path class="st2" d="M116.4,103.2l-0.3-0.1c-3.8-1-4.2-3.6-4.2-4.8V72.7c0-1.3,0.7-2.8,4.2-6.4c6.3-7.2,8.1-9,8.9-9.7l0.5-0.5
				l1.6-0.2h0.8c1.7,0,3.4,1.2,5.7,4.1c3.7,3.8,4.4,5.3,4.4,6.6v0.9L138,68c-1,3.8-3.6,4.2-4.8,4.2h-0.6c-1.6,0-3.1-1-5-3.3
				c-2.1,2.3-3.4,3.8-4.3,4.7h1.7c3.8,0,5.2,2,5.6,3.2l0,0.1l0.5,1.9l-0.1,0.6c-0.9,4.2-3.7,4.6-4.9,4.6h-4v13.1
				c0,3.8-2.1,5.2-3.4,5.7l-0.2,0.1l-1.1,0.2H116.4z"/>
			<path class="st1" d="M128,58.5c0.8,0,2.1,1.1,3.8,3.3c2.5,2.6,3.8,4.2,3.8,5v0.6c-0.4,1.6-1.2,2.3-2.3,2.3h-0.6
				c-0.8,0-2.1-1.1-3.8-3.3l-1.2-1.2c-5.2,5.7-7.8,8.6-7.8,8.9v2h5.3c1.8,0,2.9,0.5,3.3,1.6l0.3,1.2c-0.4,1.8-1.2,2.7-2.4,2.7h-6.5
				v15.6c0,1.8-0.6,2.9-1.8,3.4l-0.6,0.1h-0.6c-1.6-0.4-2.3-1.2-2.3-2.3V72.7c0-0.7,1.2-2.3,3.5-4.7c4.6-5.3,7.5-8.4,8.7-9.4
				l0.7-0.1H128 M128,53.5h-0.6H127l-0.4,0.1l-0.7,0.1l-1.4,0.2l-1.1,0.9c-1,0.8-2.9,2.7-9.2,9.9c-3.6,3.7-4.8,5.8-4.8,8v25.6
				c0,2.7,1.6,6.1,6.1,7.2l0.6,0.1h0.6h0.6h0.4l0.4-0.1l0.6-0.1l0.5-0.1l0.5-0.2c1.5-0.6,5-2.5,5-8.1V86.6h1.5
				c2.8,0,6.3-1.7,7.3-6.6l0.3-1.2l-0.3-1.2l-0.3-1.2l-0.1-0.2l-0.1-0.2c-0.1-0.3-0.3-0.8-0.6-1.3c0.1,0,0.1,0,0.2,0h0.6
				c2.7,0,6.1-1.6,7.2-6.1l0.1-0.6v-0.6v-0.6c0-2.4-1.2-4.4-5.1-8.3C133.5,55.8,131.2,53.5,128,53.5L128,53.5z"/>
		</g>
		<g>
			<path class="st2" d="M138.6,91.8l-0.3-0.1c-3.8-1-4.2-3.6-4.2-4.8V60.1c0-0.8,0.2-2.4,2-3.6c-1.7-1.2-2-2.9-2-3.8v-3.6l0.1-0.3
				c1-3.8,3.6-4.2,4.8-4.2h0.9l0.3,0.1c3.8,1,4.2,3.6,4.2,4.8v3.3c0,0.8-0.2,2.6-2,3.8c1.7,1.2,2,2.8,2,3.6v27.1l-0.1,0.3
				c-1,3.8-3.6,4.2-4.8,4.2H138.6z"/>
			<path class="st1" d="M139.6,47c1.6,0.4,2.3,1.2,2.3,2.3v3.3c0,1.2-0.9,2.1-2.7,2.4c-1.8-0.4-2.7-1.2-2.7-2.4v-3.3
				c0.4-1.6,1.2-2.3,2.3-2.3H139.6 M139.5,57.9c1.6,0.4,2.4,1.2,2.4,2.2v26.8c-0.4,1.6-1.2,2.3-2.3,2.3h-0.6
				c-1.6-0.4-2.3-1.2-2.3-2.3V60.1c0-1.1,0.8-1.8,2.4-2.2H139.5 M140.2,42h-0.6h-0.6c-2.7,0-6.1,1.6-7.2,6.1l-0.1,0.6v0.6v3.3
				c0,1.2,0.3,2.6,1.1,3.8c-0.9,1.5-1.1,3-1.1,3.7v26.8c0,2.7,1.6,6.1,6.1,7.2l0.6,0.1h0.6h0.6c2.7,0,6.1-1.6,7.2-6.1l0.1-0.6v-0.6
				V60.1c0-0.7-0.1-2.2-1.1-3.7c0.8-1.2,1.1-2.5,1.1-3.8v-3.3c0-2.7-1.6-6.1-6.1-7.2L140.2,42L140.2,42z"/>
		</g>
		<g>
			<path class="st2" d="M155.5,91.8c-0.9,0-1.9-0.3-7.2-3.8c-6-3.7-7.3-4.7-7.5-6l-0.4-1V66.8c0-2.8,2.9-4.7,5.5-6.1
				c8-5.3,8.5-5.3,9.4-5.3h0.7c0.9,0,1.9,0.3,7.2,3.8c5.7,3.5,7.1,4.6,7.4,5.8c0.3,0.6,0.4,1.2,0.4,1.8v0.7c0,2-1.6,3.7-5.5,5.9
				L155.2,80l0.6,0.4c8.5-5.5,8.8-5.5,9.7-5.5h0.5c2.2,0,4,1.4,4.9,3.8l0.1,0.4v1.3c0,2.8-2.9,4.7-5.5,6.1c-8,5.3-8.5,5.3-9.4,5.3
				H155.5z M150.8,70.6l5.4-3.5l-0.6-0.4c-2.7,1.7-4.1,2.6-4.9,3.1V70.6z"/>
			<path class="st1" d="M156.1,57.9c0.5,0,2.5,1.1,5.8,3.4c4.2,2.6,6.4,4.1,6.4,4.5c0.2,0.4,0.3,0.7,0.3,1.1v0.7
				c0,0.9-1.4,2.2-4.2,3.7L150.6,80v0.1l5.3,3.2c6.1-4,9.3-5.9,9.7-5.9h0.5c1.2,0,2,0.7,2.5,2.1v0.8c0,1.1-1.4,2.5-4.2,3.9
				c-5,3.3-7.7,5-8.2,5h-0.7c-0.5,0-2.5-1.1-5.8-3.4c-4.2-2.6-6.4-4.1-6.4-4.5l-0.3-0.8V66.8c0-1.1,1.4-2.5,4.2-3.9
				c5-3.3,7.7-5,8.2-5H156.1 M148.3,75h0.1l12.5-8V67l-5.3-3.2c-4.8,3-7.2,4.6-7.3,4.8V75 M156.1,52.9h-0.7c-1.7,0-2.6,0.2-10.7,5.7
				c-2.1,1.1-6.7,3.7-6.7,8.2v13.8v0.9l0.3,0.8l0.1,0.4c0.6,2.5,3.1,4.1,8.5,7.4c5.3,3.6,6.8,4.2,8.5,4.2h0.7
				c1.7,0,2.6-0.2,10.7-5.7c2.1-1.1,6.7-3.7,6.7-8.2v-0.8v-0.9l-0.3-0.8c-0.7-1.9-1.8-3.3-3.2-4.3c2-1.5,3.5-3.5,3.5-6v-0.7
				c0-0.9-0.2-1.8-0.6-2.7c-0.7-2.3-3.3-3.9-8.4-7C159.3,53.5,157.8,52.9,156.1,52.9L156.1,52.9z"/>
		</g>
		<g>
			<path class="st2" d="M173.3,91.8l-0.3-0.1c-3.8-1-4.2-3.6-4.2-4.8V49.1l0.1-0.3c1-3.8,3.6-4.2,4.8-4.2h0.9l0.3,0.1
				c3.8,1,4.2,3.6,4.2,4.8v37.8l-0.1,0.3c-1,3.8-3.6,4.2-4.8,4.2H173.3z"/>
			<path class="st1" d="M174.2,47c1.6,0.4,2.3,1.2,2.3,2.3v37.5c-0.4,1.6-1.2,2.3-2.3,2.3h-0.6c-1.6-0.4-2.3-1.2-2.3-2.3V49.4
				c0.4-1.6,1.2-2.3,2.3-2.3H174.2 M174.8,42h-0.6h-0.6c-2.7,0-6.1,1.6-7.2,6.1l-0.1,0.6v0.6v37.5c0,2.7,1.6,6.1,6.1,7.2l0.6,0.1
				h0.6h0.6c2.7,0,6.1-1.6,7.2-6.1l0.1-0.6v-0.6V49.4c0-2.7-1.6-6.1-6.1-7.2L174.8,42L174.8,42z"/>
		</g>
		<g>
			<path class="st2" d="M179.6,91.8l-0.3-0.1c-3.8-1-4.2-3.6-4.2-4.8V67.8c0-1.1,0.4-3.8,4.4-4.8l0.3-0.1h12.1V50.1l0-0.1
				c0.5-5.1,3.9-5.5,4.9-5.5h0.9l0.3,0.1c3.8,1,4.2,3.6,4.2,4.8v37.8l-0.1,0.3c-1,3.8-3.6,4.2-4.8,4.2H179.6z M191.8,81.5v-8h-6.3v8
				H191.8z"/>
			<path class="st1" d="M197.4,47c1.6,0.4,2.3,1.2,2.3,2.3v37.5c-0.4,1.6-1.2,2.3-2.3,2.3h-17.5c-1.6-0.4-2.3-1.2-2.3-2.3V67.8
				c0-1.2,0.8-1.9,2.4-2.3h14.3V50.2c0.2-2.1,1-3.2,2.4-3.2H197.4 M183,84h11.3v-13H183V84 M198,42h-0.6h-0.6c-3.1,0-6.9,2-7.4,7.7
				l0,0.2v0.2v10.3H180h-0.6l-0.6,0.1c-4.6,1.1-6.3,4.4-6.3,7.2v19.1c0,2.7,1.6,6.1,6.1,7.2l0.6,0.1h0.6h17.5c2.7,0,6.1-1.6,7.2-6.1
				l0.1-0.6v-0.6V49.4c0-2.7-1.6-6.1-6.1-7.2L198,42L198,42z M188,75.9h1.3v3H188V75.9L188,75.9z"/>
		</g>
	</g>
</g>
<g>
	<g>
		<path class="st2" d="M40.5,5h0.6c1.5,0.4,2.2,1.1,2.2,2.2v11.5h13.8c1.3,0,2.3,1.4,3.2,4.2c1.6,3.7,2.4,5.8,2.4,6.1v14.3
			c-0.4,1.5-1.1,2.2-2.2,2.2h-0.6c-1.5-0.4-2.2-1.1-2.2-2.2V30.1l-2.4-6.2H43.3v19.3c-0.4,1.5-1.1,2.2-2.2,2.2h-0.6
			c-1.5-0.4-2.2-1.1-2.2-2.2v-36C38.6,5.7,39.3,5,40.5,5z"/>
	</g>
	<g>
		<path class="st2" d="M77.9,15.4c0.5,0,2.4,1.1,5.6,3.3c4.1,2.5,6.1,3.9,6.1,4.3l0.3,0.8v19.5c-0.4,1.5-1.1,2.2-2.2,2.2h-0.6
			c-1.4,0-2.2-1-2.3-3.1v-0.9h-0.1c-4,2.6-6.2,4-6.6,4h-0.7c-0.5,0-2.4-1.1-5.6-3.3c-4.1-2.5-6.1-3.9-6.1-4.3
			c-0.2-0.4-0.3-0.7-0.3-1v-0.7c0-0.9,1.4-2.1,4.1-3.6l13.2-8.5v-0.1l-5.1-3.1c-5.9,3.8-8.9,5.7-9.3,5.7h-0.5c-1.1,0-2-0.7-2.4-2
			v-0.8c0-1.1,1.4-2.4,4.1-3.8c4.8-3.2,7.4-4.8,7.8-4.8H77.9z M72.6,36.7v0.1l5.1,3.1l7-4.6V29h-0.1L72.6,36.7z"/>
	</g>
	<g>
		<path class="st2" d="M94.7,22.7h16.8c1.5,0.4,2.2,1.1,2.2,2.2v0.6c0,1.4-1.1,2.2-3.2,2.3H97.7v12.4h12.7c1.7,0,2.8,0.6,3.3,1.7
			l0.1,0.6v0.6c-0.4,1.5-1.1,2.2-2.2,2.2H94.7c-1.5-0.4-2.2-1.1-2.2-2.2V25C92.9,23.5,93.6,22.7,94.7,22.7z"/>
	</g>
	<g>
		<path class="st2" d="M118.6,5h0.6c1.5,0.4,2.2,1.1,2.2,2.2v22.1l16.2-18c0.5-0.3,0.9-0.5,1.3-0.5h0.5c1.2,0,2,0.8,2.3,2.4
			c0,1-0.7,2.2-2.2,3.6l-7,7.9c5.5,6.2,8.5,9.7,9.1,10.4l0.2,1.2v6.9c-0.4,1.5-1.1,2.2-2.2,2.2h-0.6c-1.2,0-1.9-0.8-2.2-2.3
			l-0.1-3.6v-2.4l-7.5-8.5c-0.8,0.7-3.3,3.5-7.6,8.6v6c-0.4,1.5-1.1,2.2-2.2,2.2h-0.6c-1.5-0.4-2.2-1.1-2.2-2.2v-36
			C116.7,5.7,117.4,5,118.6,5z"/>
	</g>
</g>
<g>
	<g>
		<path class="st2" d="M20.6,51.9c0.5,0,2.7,1.2,6.4,3.7c4.8,3,7.5,4.7,8.1,5.3c0.4,0.5,0.5,1,0.5,1.4v0.7c-0.5,1.5-1.3,2.2-2.3,2.2
			h-0.4c-0.6,0-2.5-1-5.5-3.1l-7-4.5l-7.6,4.8v0.1l22.2,14c0.5,0.6,0.7,1.2,0.7,1.7v0.7c0,1-1.6,2.3-4.7,3.9
			c-6.3,4.2-9.7,6.3-10.2,6.3H20c-0.5,0-2.7-1.2-6.4-3.7c-4.8-3-7.5-4.7-8.1-5.3c-0.4-0.5-0.5-1-0.5-1.4v-0.7
			c0.5-1.5,1.3-2.2,2.3-2.2h0.4c0.6,0,2.5,1,5.5,3.1l7,4.5l7.6-4.8v-0.1C16.1,71.2,8.7,66.5,5.5,64.3L5,63.1v-0.7
			c0-1.1,1.3-2.4,3.9-3.7c6.9-4.5,10.5-6.7,10.8-6.7H20.6z"/>
	</g>
	<g>
		<path class="st2" d="M40.5,47h0.6c1.6,0.4,2.3,1.2,2.3,2.3v12h14.4c1.3,0,2.4,1.4,3.3,4.3c1.7,3.9,2.5,6,2.5,6.4v14.8
			c-0.4,1.6-1.2,2.3-2.3,2.3h-0.6c-1.6-0.4-2.3-1.2-2.3-2.3V73.2l-2.5-6.5H43.5v20.1c-0.4,1.6-1.2,2.3-2.3,2.3h-0.6
			c-1.6-0.4-2.3-1.2-2.3-2.3V49.4C38.6,47.8,39.4,47,40.5,47z"/>
	</g>
	<g>
		<path class="st2" d="M79.5,57.9c0.5,0,2.5,1.1,5.8,3.4c4.2,2.6,6.4,4.1,6.4,4.5c0.2,0.4,0.3,0.7,0.3,1.1v0.7
			c0,0.9-1.4,2.2-4.2,3.7L74,80v0.1l5.3,3.2c6.1-4,9.3-5.9,9.7-5.9h0.5c1.2,0,2,0.7,2.5,2.1v0.8c0,1.1-1.4,2.5-4.2,3.9
			c-5,3.3-7.7,5-8.2,5h-0.7c-0.5,0-2.5-1.1-5.8-3.4c-4.2-2.6-6.4-4.1-6.4-4.5l-0.3-0.8V66.8c0-1.1,1.4-2.5,4.2-3.9
			c5-3.3,7.7-5,8.2-5H79.5z M71.8,68.6V75h0.1l12.5-8V67l-5.3-3.2C74.3,66.8,71.9,68.4,71.8,68.6z"/>
	</g>
	<g>
		<path class="st2" d="M107.7,58.5h0.6c0.8,0,2.1,1.1,3.8,3.3c2.5,2.6,3.8,4.2,3.8,5v0.6c-0.4,1.6-1.2,2.3-2.3,2.3H113
			c-0.8,0-2.1-1.1-3.8-3.3l-1.2-1.2c-5.2,5.7-7.8,8.6-7.8,8.9v2h5.3c1.8,0,2.9,0.5,3.3,1.6l0.3,1.2c-0.4,1.8-1.2,2.7-2.4,2.7h-6.5
			v15.6c0,1.8-0.6,2.9-1.8,3.4l-0.6,0.1H97c-1.6-0.4-2.3-1.2-2.3-2.3V72.7c0-0.7,1.2-2.3,3.5-4.7c4.6-5.3,7.5-8.4,8.7-9.4
			L107.7,58.5z"/>
	</g>
	<g>
		<path class="st2" d="M127.3,58.5h0.6c0.8,0,2.1,1.1,3.8,3.3c2.5,2.6,3.8,4.2,3.8,5v0.6c-0.4,1.6-1.2,2.3-2.3,2.3h-0.6
			c-0.8,0-2.1-1.1-3.8-3.3l-1.2-1.2c-5.2,5.7-7.8,8.6-7.8,8.9v2h5.3c1.8,0,2.9,0.5,3.3,1.6l0.3,1.2c-0.4,1.8-1.2,2.7-2.4,2.7h-6.5
			v15.6c0,1.8-0.6,2.9-1.8,3.4l-0.6,0.1h-0.6c-1.6-0.4-2.3-1.2-2.3-2.3V72.7c0-0.7,1.2-2.3,3.5-4.7c4.6-5.3,7.5-8.4,8.7-9.4
			L127.3,58.5z"/>
	</g>
	<g>
		<path class="st2" d="M138.9,47h0.6c1.6,0.4,2.3,1.2,2.3,2.3v3.3c0,1.2-0.9,2.1-2.7,2.4c-1.8-0.4-2.7-1.2-2.7-2.4v-3.3
			C137,47.8,137.8,47,138.9,47z M139,57.9h0.4c1.6,0.4,2.4,1.2,2.4,2.2v26.8c-0.4,1.6-1.2,2.3-2.3,2.3h-0.6
			c-1.6-0.4-2.3-1.2-2.3-2.3V60.1C136.6,59,137.4,58.3,139,57.9z"/>
	</g>
	<g>
		<path class="st2" d="M156.1,57.9c0.5,0,2.5,1.1,5.8,3.4c4.2,2.6,6.4,4.1,6.4,4.5c0.2,0.4,0.3,0.7,0.3,1.1v0.7
			c0,0.9-1.4,2.2-4.2,3.7L150.6,80v0.1l5.3,3.2c6.1-4,9.3-5.9,9.7-5.9h0.5c1.2,0,2,0.7,2.5,2.1v0.8c0,1.1-1.4,2.5-4.2,3.9
			c-5,3.3-7.7,5-8.2,5h-0.7c-0.5,0-2.5-1.1-5.8-3.4c-4.2-2.6-6.4-4.1-6.4-4.5l-0.3-0.8V66.8c0-1.1,1.4-2.5,4.2-3.9
			c5-3.3,7.7-5,8.2-5H156.1z M148.3,68.6V75h0.1l12.5-8V67l-5.3-3.2C150.9,66.8,148.4,68.4,148.3,68.6z"/>
	</g>
	<g>
		<path class="st2" d="M173.6,47h0.6c1.6,0.4,2.3,1.2,2.3,2.3v37.5c-0.4,1.6-1.2,2.3-2.3,2.3h-0.6c-1.6-0.4-2.3-1.2-2.3-2.3V49.4
			C171.6,47.8,172.4,47,173.6,47z"/>
	</g>
	<g>
		<path class="st2" d="M196.8,47h0.6c1.6,0.4,2.3,1.2,2.3,2.3v37.5c-0.4,1.6-1.2,2.3-2.3,2.3h-17.5c-1.6-0.4-2.3-1.2-2.3-2.3V67.8
			c0-1.2,0.8-1.9,2.4-2.3h14.3V50.2C194.5,48.1,195.4,47,196.8,47z M183,70.9v13h11.3v-13H183z"/>
	</g>
</g>
</svg>
